<svg xmlns="http://www.w3.org/2000/svg" viewBox="0 0 64 64">
  <g fill="none" stroke="#2f62df" stroke-width="2.6" stroke-linejoin="round">
    <polygon points="25.07,12 32,16 32,24 25.07,28 18.14,24 18.14,16"/>
    <polygon points="38.93,12 45.86,16 45.86,24 38.93,28 32,24 32,16"/>
    <polygon points="18.14,24 25.07,28 25.07,36 18.14,40 11.21,36 11.21,28"/>
    <polygon points="45.86,24 52.79,28 52.79,36 45.86,40 38.93,36 38.93,28"/>
    <polygon points="25.07,36 32,40 32,48 25.07,52 18.14,48 18.14,40"/>
    <polygon points="38.93,36 45.86,40 45.86,48 38.93,52 32,48 32,40"/>
  </g>
  <polygon fill="#2f62df" points="32,24 38.93,28 38.93,36 32,40 25.07,36 25.07,28"/>
</svg>
